<?xml version="1.0" encoding="utf-8"?>
<!-- Generator: Adobe Illustrator 21.0.0, SVG Export Plug-In . SVG Version: 6.00 Build 0)  -->
<svg version="1.1" xmlns="http://www.w3.org/2000/svg" xmlns:xlink="http://www.w3.org/1999/xlink" x="0px" y="0px"
	 viewBox="0 0 2536 1772" style="enable-background:new 0 0 2536 1772;" xml:space="preserve">
<g id="Background">
</g>
<g id="Layer_2">
	<g>
		<g>
			<path d="M238.4,1471.9v2.4h-15.4v114.8h27.7c3.7,0,7.4-0.6,11.2-1.8c3.7-1.2,7.3-3.3,10.6-6.1c3.3-2.9,6.3-6.5,8.9-11.1
				c2.6-4.5,4.7-10,6.1-16.5h2.2v37.9H183.1v-2.4h15.4v-114.8h-15.4v-2.4H238.4z"/>
			<path d="M417.1,1471.9v2.4h-15.4v114.8h15.4v2.4h-55.2v-2.4h15.4v-114.8h-15.4v-2.4H417.1z"/>
			<path d="M527.8,1471.9l55.9,79.9h0.3v-77.6h-15.4v-2.4h33.6v2.4h-15.4v117.2h-4.5l-75.5-107.6h-0.3v105.2h15.4v2.4h-33.6v-2.4
				h15.4v-114.8h-15.4v-2.4H527.8z"/>
			<path d="M675.5,1589.1l50-121.9h4.5l52.9,121.9h14.4v2.4h-56.4v-2.4h15.6l-19.5-45h-40.3l-18.6,45h14.9v2.4h-31.7v-2.4H675.5z
				 M697.6,1541.7h38.6l-19.8-45.8L697.6,1541.7z"/>
			<path d="M857.6,1474.2v-2.4h25.3c4.7,0,9.3-0.1,13.9-0.3c4.6-0.2,9.2-0.3,13.9-0.3c4.4,0,9,0.4,13.8,1.3
				c4.9,0.9,9.3,2.4,13.3,4.6c4,2.2,7.4,5.1,10,8.8c2.6,3.7,3.9,8.3,3.9,13.9c0,4.5-1,8.3-3,11.5c-2,3.2-4.6,5.8-7.8,7.8
				c-3.2,2-6.7,3.6-10.7,4.6c-3.9,1.1-7.8,1.8-11.6,2.1v0.8c5.5,1,10.4,2,14.7,3c4.3,1,8,2.5,11.2,4.5c3.1,2,5.6,4.8,7.5,8.4
				c1.8,3.6,3,8.4,3.4,14.4c0.6,7.1,1,12.7,1.3,17c0.3,4.3,0.8,7.6,1.4,9.9c0.6,2.4,1.5,3.9,2.5,4.7c1.1,0.8,2.6,1.2,4.6,1.2
				c2.2,0,4.1-0.6,5.5-1.9c1.5-1.3,2.7-2.5,3.9-3.6l1.7,1.5c-1.1,1.1-2.2,2.2-3.3,3.1c-1.1,1-2.3,1.8-3.7,2.4
				c-1.4,0.7-3.1,1.2-5.1,1.6c-2,0.4-4.5,0.6-7.6,0.6c-6.2,0-11-1-14.4-2.9c-3.5-2-6-4.4-7.7-7.3c-1.7-2.9-2.7-6.1-3.1-9.5
				c-0.4-3.4-0.6-6.6-0.8-9.7c-0.2-4.6-0.5-9-0.9-13.3c-0.4-4.3-1.3-8.1-2.8-11.5c-1.5-3.4-3.6-6-6.5-8.1c-2.9-2-7-3-12.3-3h-11.1
				v60.6h15.4v2.4h-55.2v-2.4H873v-114.8H857.6z M904.3,1526.1c5,0,9-0.7,11.9-2c2.9-1.3,5.1-3.2,6.5-5.5c1.5-2.3,2.4-4.9,2.8-7.8
				c0.4-2.9,0.6-5.9,0.6-8.9c0-4.9-0.3-9.1-1-12.7c-0.7-3.5-1.8-6.4-3.4-8.7c-1.6-2.3-3.7-4-6.5-5.1c-2.7-1.1-6.2-1.7-10.5-1.7
				c-1.2,0-2.5,0.1-3.7,0.2c-1.2,0.1-2.5,0.2-3.7,0.3v51.9H904.3z"/>
			<path d="M1041.6,1589.1l50-121.9h4.5l52.9,121.9h14.4v2.4H1107v-2.4h15.6l-19.5-45h-40.3l-18.6,45h14.9v2.4h-31.7v-2.4H1041.6z
				 M1063.7,1541.7h38.6l-19.8-45.8L1063.7,1541.7z"/>
			<path d="M1364.2,1474.2c-4.1,0-7.8,0.4-11.1,1.3c-3.2,0.8-6.2,2.3-8.7,4.4c-2.6,2.1-4.9,5-6.9,8.6c-2,3.7-3.9,8.4-5.5,14.1h-2.2
				v-30.7H1435v30.7h-2.2c-1.7-5.7-3.5-10.4-5.5-14.1c-2-3.7-4.3-6.6-6.9-8.6c-2.6-2.1-5.5-3.5-8.7-4.4c-3.2-0.8-6.9-1.3-11.1-1.3
				h-6v114.8h15.4v2.4h-55.2v-2.4h15.4v-114.8H1364.2z"/>
			<path d="M1506.2,1474.2v-2.4h25.3c4.7,0,9.3-0.1,13.9-0.3c4.6-0.2,9.2-0.3,13.9-0.3c4.4,0,9,0.4,13.8,1.3
				c4.9,0.9,9.3,2.4,13.3,4.6c4,2.2,7.4,5.1,10,8.8c2.6,3.7,3.9,8.3,3.9,13.9c0,4.5-1,8.3-3,11.5c-2,3.2-4.6,5.8-7.8,7.8
				c-3.2,2-6.7,3.6-10.7,4.6c-3.9,1.1-7.8,1.8-11.6,2.1v0.8c5.5,1,10.4,2,14.7,3c4.3,1,8,2.5,11.2,4.5c3.1,2,5.6,4.8,7.5,8.4
				c1.8,3.6,3,8.4,3.4,14.4c0.6,7.1,1,12.7,1.3,17c0.3,4.3,0.8,7.6,1.4,9.9c0.6,2.4,1.5,3.9,2.5,4.7c1.1,0.8,2.6,1.2,4.6,1.2
				c2.2,0,4.1-0.6,5.5-1.9c1.5-1.3,2.7-2.5,3.9-3.6l1.7,1.5c-1.1,1.1-2.2,2.2-3.3,3.1c-1.1,1-2.3,1.8-3.7,2.4
				c-1.4,0.7-3.1,1.2-5.1,1.6c-2,0.4-4.5,0.6-7.6,0.6c-6.2,0-11-1-14.4-2.9c-3.5-2-6-4.4-7.7-7.3c-1.7-2.9-2.7-6.1-3.1-9.5
				c-0.4-3.4-0.6-6.6-0.8-9.7c-0.2-4.6-0.5-9-0.9-13.3c-0.4-4.3-1.3-8.1-2.8-11.5c-1.5-3.4-3.6-6-6.5-8.1c-2.9-2-7-3-12.3-3H1546
				v60.6h15.4v2.4h-55.2v-2.4h15.4v-114.8H1506.2z M1552.9,1526.1c5,0,9-0.7,11.9-2c2.9-1.3,5.1-3.2,6.5-5.5
				c1.5-2.3,2.4-4.9,2.8-7.8c0.4-2.9,0.6-5.9,0.6-8.9c0-4.9-0.3-9.1-1-12.7c-0.7-3.5-1.8-6.4-3.4-8.7c-1.6-2.3-3.7-4-6.5-5.1
				c-2.7-1.1-6.2-1.7-10.5-1.7c-1.2,0-2.5,0.1-3.7,0.2c-1.2,0.1-2.5,0.2-3.7,0.3v51.9H1552.9z"/>
			<path d="M1690.2,1589.1l50-121.9h4.5l52.9,121.9h14.4v2.4h-56.4v-2.4h15.6l-19.5-45h-40.3l-18.6,45h14.9v2.4h-31.7v-2.4H1690.2z
				 M1712.3,1541.7h38.6l-19.8-45.8L1712.3,1541.7z"/>
			<path d="M1919.6,1471.9v2.4h-16.1l34.7,91l35.4-91h-15.1v-2.4h32.1v2.4h-14.4l-47.3,121.7h-4.9l-46.3-121.7h-14.1v-2.4H1919.6z"
				/>
			<path d="M2153,1471.9v28.7h-2.2c-0.6-1.9-1.5-4.3-2.9-7.3c-1.3-3-3.2-5.8-5.6-8.6c-2.4-2.8-5.5-5.2-9.3-7.3
				c-3.8-2.1-8.5-3.1-13.9-3.1h-26.7v51.9h9.4c4.1,0,7.6-0.6,10.5-1.8c2.9-1.2,5.2-2.9,7.1-5c1.9-2.2,3.5-4.8,4.7-7.9
				c1.2-3.1,2.2-6.5,3-10.3h2.2v52.2h-2.2c-0.8-3.2-1.7-6.4-2.8-9.4c-1.1-3-2.5-5.7-4.3-8c-1.8-2.3-4-4.1-6.6-5.5
				c-2.6-1.3-5.9-2-9.8-2h-11.2v60.6h27.5c5.1,0,9.8-0.9,13.9-2.6c4.1-1.7,7.8-4.2,11-7.3c3.2-3.1,5.8-6.8,8-11
				c2.1-4.2,3.7-8.7,4.9-13.5h2.2v36.8h-107.3v-2.4h15.4v-114.8h-15.4v-2.4H2153z"/>
			<path d="M2289.3,1471.9v2.4h-15.4v114.8h27.7c3.7,0,7.4-0.6,11.2-1.8c3.7-1.2,7.3-3.3,10.6-6.1c3.3-2.9,6.3-6.5,8.9-11.1
				c2.6-4.5,4.7-10,6.1-16.5h2.2v37.9H2234v-2.4h15.4v-114.8H2234v-2.4H2289.3z"/>
		</g>
		<g>
			<path d="M797,897.6l178.2-517.5h-69.6l3.6-10.6h248.9l-3.6,10.6h-69.6L906.7,897.6h124.8c16.6,0,34.4-2.8,53.2-8.3
				c18.8-5.5,37.9-14.8,57.2-27.6c19.3-12.9,38.4-29.5,57.3-49.9c18.9-20.4,36.6-45.3,53.3-74.5h0.1l133.8-414.7l9.4,3l-66.3,205.6
				h443c-74.8-215.5-279.6-370.2-520.6-370.2c-304.3,0-550.9,246.7-550.9,550.9c0,65.2,11.3,127.7,32.1,185.8H797z"/>
			<path d="M1784.2,569.4l-34.5,100.2h-9.8c1.3-25.7,0.3-46.9-3.1-63.5c-3.3-16.6-9.2-29.6-17.6-39c-8.4-9.3-19.2-15.9-32.6-19.7
				c-13.3-3.8-29.3-5.7-48-5.7h-27.2l-178.2,517.5h69.6l-3.6,10.6h-248.9l3.6-10.6h69.6l178.2-517.5h-27.2c-18.7,0-36,1.9-51.9,5.7
				c-15.9,3.8-31.3,10.3-46.1,19.7c-14.8,9.3-29.6,22.3-44.4,39s-30.4,37.8-46.8,63.5h-0.4L1141,1115.3l-9.4-3l65.8-204H736.9
				c79.1,207.3,279.8,354.6,514.9,354.6c304.3,0,550.9-246.7,550.9-550.9C1802.8,662.6,1796.3,614.8,1784.2,569.4z"/>
		</g>
	</g>
</g>
</svg>
